<?xml version="1.0" encoding="utf-8"?>
<!-- Generator: Adobe Illustrator 16.0.4, SVG Export Plug-In . SVG Version: 6.00 Build 0)  -->
<!DOCTYPE svg PUBLIC "-//W3C//DTD SVG 1.1//EN" "http://www.w3.org/Graphics/SVG/1.1/DTD/svg11.dtd">
<svg version="1.1" id="Layer_1" xmlns="http://www.w3.org/2000/svg" xmlns:xlink="http://www.w3.org/1999/xlink" x="0px" y="0px"
	 width="50px" height="50px" viewBox="0 0 50 50" enable-background="new 0 0 50 50" xml:space="preserve">
<path d="M25.157,19.835c-2.435,0-4.406,1.973-4.406,4.405c0,2.433,1.974,4.406,4.406,4.406s4.407-1.973,4.407-4.406
	C29.564,21.808,27.591,19.835,25.157,19.835z M26.949,25.74c-0.131,0.186-0.317,0.324-0.559,0.422
	c-0.09,0.035-0.191,0.062-0.311,0.088v0.736h-0.699v-0.68c-0.018,0-0.033,0-0.052,0h-0.397v0.68h-0.699v-0.68h-1.066v-0.57h0.163
	c0.108,0,0.183-0.01,0.221-0.027c0.038-0.02,0.065-0.045,0.081-0.082c0.016-0.033,0.023-0.111,0.023-0.231v-2.304
	c0-0.121-0.008-0.2-0.023-0.234c-0.016-0.033-0.043-0.061-0.081-0.08c-0.038-0.019-0.112-0.028-0.221-0.028h-0.163v-0.571h1.066
	V21.5h0.699v0.679h0.449V21.5h0.699v0.728c0.104,0.021,0.197,0.045,0.277,0.077c0.205,0.084,0.363,0.205,0.474,0.361
	s0.165,0.329,0.165,0.516c0,0.137-0.029,0.267-0.087,0.389c-0.06,0.122-0.144,0.231-0.253,0.325s-0.256,0.17-0.436,0.231
	c0.193,0.05,0.342,0.104,0.443,0.164c0.146,0.082,0.266,0.197,0.352,0.348c0.088,0.148,0.131,0.315,0.131,0.498
	C27.148,25.353,27.083,25.557,26.949,25.74z M28.217,30.225v-0.584h0.586v0.584H28.217z M30.557,26.133v-0.586h0.584v0.586H30.557z
	 M23.539,29.641h0.584v0.584h-0.584V29.641z M29.387,29.055h1.754v0.586h-0.584v0.584h-0.586v-0.584h-0.584V29.055z M31.141,27.887
	h-0.584v-0.586h0.584V27.887z M31.141,17.946h-4.093v1.22c-0.372-0.14-0.763-0.238-1.169-0.293v-0.342h-0.586v0.294
	c-0.046-0.001-0.09-0.007-0.136-0.007c-0.151,0-0.3,0.012-0.448,0.022V18.53h0.584v-0.585h-1.754v1.119
	c-0.201,0.063-0.395,0.142-0.585,0.226v-1.345h-4.093v4.094h1.345c-0.302,0.674-0.474,1.419-0.474,2.202
	c0,0.047,0.007,0.091,0.008,0.137h-0.294v-1.754h-0.585v2.34h0.926c0.055,0.406,0.154,0.796,0.293,1.169h-1.219v4.092h4.093v-1.031
	c0.674,0.301,1.418,0.473,2.203,0.473c0.45,0,0.887-0.062,1.306-0.164v0.725h0.585V29.32c0.2-0.076,0.396-0.16,0.584-0.258v0.578
	h0.585v-0.924c0.112-0.076,0.221-0.16,0.327-0.244h2.013v-0.586h-1.395c0.169-0.186,0.328-0.377,0.47-0.584h0.339v-0.57
	c0.193-0.371,0.342-0.77,0.445-1.184h0.141v-0.825c0.01-0.114,0.016-0.229,0.019-0.346h0.565v-0.584h-0.582
	c-0.017-0.198-0.041-0.396-0.078-0.586h0.66v-0.584h-0.807c-0.062-0.201-0.141-0.396-0.227-0.585h1.033V17.946L31.141,17.946z
	 M19.445,21.455V18.53h2.925v1.066c-0.204,0.123-0.399,0.257-0.585,0.404v-0.887h-1.754v1.754h0.886
	c-0.147,0.187-0.28,0.382-0.403,0.586L19.445,21.455L19.445,21.455z M22.37,29.641h-2.925v-2.924h0.892
	c0.104,0.201,0.218,0.396,0.347,0.584h-0.651v1.754h1.754v-0.572c0.187,0.146,0.381,0.281,0.585,0.404L22.37,29.641L22.37,29.641z
	 M25.157,29.166c-2.72,0-4.925-2.205-4.925-4.925c0-2.719,2.205-4.924,4.925-4.924c2.719,0,4.924,2.205,4.924,4.924
	C30.081,26.961,27.876,29.166,25.157,29.166z M30.557,21.455h-0.754c-0.123-0.204-0.258-0.399-0.404-0.585h0.572v-1.755h-1.754
	v0.651c-0.187-0.128-0.383-0.242-0.585-0.346v-0.892h2.925V21.455L30.557,21.455z M25.99,24.713
	c0.058,0.086,0.087,0.188,0.087,0.312c0,0.145-0.041,0.269-0.122,0.37c-0.08,0.104-0.18,0.169-0.294,0.203
	c-0.115,0.033-0.261,0.049-0.437,0.049h-0.302c-0.101,0-0.161-0.006-0.185-0.016c-0.021-0.012-0.039-0.031-0.049-0.059
	c-0.008-0.021-0.014-0.096-0.016-0.223v-0.895h0.535c0.234,0,0.408,0.021,0.523,0.065C25.848,24.566,25.934,24.629,25.99,24.713z
	 M25.129,23.849h-0.453v-1.006h0.453c0.266,0,0.448,0.016,0.551,0.048c0.104,0.032,0.182,0.088,0.236,0.164
	c0.055,0.078,0.08,0.17,0.08,0.279c0,0.104-0.028,0.195-0.086,0.276c-0.057,0.078-0.143,0.14-0.256,0.179
	C25.54,23.83,25.366,23.849,25.129,23.849z M32.691,8.082H17.311c-1.84,0-3.338,1.562-3.338,3.48v26.875
	c0,1.92,1.498,3.48,3.338,3.48h15.381c1.84,0,3.336-1.562,3.336-3.48V11.563C36.027,9.643,34.531,8.082,32.691,8.082z M22.438,9.375
	h5.125c0.276,0,0.5,0.224,0.5,0.5c0,0.275-0.224,0.5-0.5,0.5h-5.125c-0.275,0-0.5-0.225-0.5-0.5
	C21.938,9.599,22.162,9.375,22.438,9.375z M25.001,41.125c-0.828,0-1.5-0.672-1.5-1.5s0.672-1.5,1.5-1.5s1.5,0.672,1.5,1.5
	S25.829,41.125,25.001,41.125z M34.027,37.197H15.973V11.563c0-0.048,0.01-0.093,0.014-0.14h18.027
	c0.004,0.047,0.014,0.092,0.014,0.14V37.197L34.027,37.197z"/>
</svg>
