<?xml version="1.0" encoding="utf-8"?>
<!-- Generator: Adobe Illustrator 17.1.0, SVG Export Plug-In . SVG Version: 6.00 Build 0)  -->
<!DOCTYPE svg PUBLIC "-//W3C//DTD SVG 1.1//EN" "http://www.w3.org/Graphics/SVG/1.1/DTD/svg11.dtd">
<svg version="1.1" id="Layer_1" xmlns="http://www.w3.org/2000/svg" xmlns:xlink="http://www.w3.org/1999/xlink" x="0px" y="0px"
	 viewBox="0 0 70 70" enable-background="new 0 0 70 70" xml:space="preserve">
<path d="M63,10H8c-2.209,0-4,1.791-4,4v41c0,2.209,1.791,4,4,4h55c2.209,0,4-1.791,4-4V14C67,11.791,65.209,10,63,10z M63,14v29.091
	l-7.883-7.167c-1.185-1.077-3.007-1.034-4.139,0.099L43,44L27.269,25.21c-1.189-1.42-3.367-1.434-4.574-0.031L8,42.257V14H63z
	 M46,24.5c0-3.038,2.462-5.5,5.5-5.5s5.5,2.462,5.5,5.5S54.538,30,51.5,30S46,27.538,46,24.5z"/>
</svg>
